# xmcd
#
# Track frame offsets:
# 150
# 13525
# 25980
# 38445
# 50755
# 62987
# 74372
# 88840
# 101882
# 116767
# 129102
# 143137
# 153527
# 166220
# 178027
# 189450
# 199935
# 211247
# 224482
# 239142
#
# Disc length: 3305 seconds
#
# Revision: 0
# Processed by: cddbd v1.4PL0 Copyright (c) Steve Scherf et al.
# Submitted via: Audion 3.0.2 (http://www.panic.com/audion/)
#
DISCID=2d0ce714
DTITLE=Various Artist - Country and Western International Best
DYEAR=1900
DGENRE=
TTITLE0=Wildwood Flower/Hank Thompson
TTITLE1=Oklahoma Hills/Hank Thompson
TTITLE2=Don't Let the Stars Get in Your Eyes/Skeets McDonald
TTITLE3=Sweet Dreams/Faron Young
TTITLE4=What'Cha Gonna Do Now/Tommy Collins
TTITLE5=Dear John Letter/Jean Shepard and Ferlin Husky
TTITLE6=Hank's Song/Ferlin Husky
TTITLE7=Your Cheatin' Heart/Faron Young
TTITLE8=Weary Blues/Wanda Jackson
TTITLE9=The Wild Side of Life/Hank Thompson
TTITLE10=Those Old Love Letters from You/Tommy Collins
TTITLE11=North Wind/Texas Bill Strength
TTITLE12=High Noon/Tex Ritter
TTITLE13=16 Tons/Tenessee Earnie Ford
TTITLE14=Young Love/Sonny James
TTITLE15=Making Believe/Wanda Jackson
TTITLE16=I Can't Stop Loving You/Jean Shepard
TTITLE17=I Really Don't Want to Know/Ferlin Husky
TTITLE18=Green Green Grass of Home/Merle Haggard
TTITLE19=Jambalaya/Wanda Jackson
EXTD=
EXTT0=
EXTT1=
EXTT2=
EXTT3=
EXTT4=
EXTT5=
EXTT6=
EXTT7=
EXTT8=
EXTT9=
EXTT10=
EXTT11=
EXTT12=
EXTT13=
EXTT14=
EXTT15=
EXTT16=
EXTT17=
EXTT18=
EXTT19=
PLAYORDER=
